PathFileType	4	(X/Y/Z)	D:\TRACE\v60_Jaco2_6-2-23\JustBodyDRS_Motion2_1-v60.trc
DataRate	CameraRate	NumFrames	NumMarkers	Units	OrigDataRate	OrigDataStartFrame	OrigNumFrames
100.00	100.00	      17	9	mm	100.00	3505	      7009
Frame#	Time	front left toe			Front right toe			aft left toe			aft right toe			Arm			FL body			FR body			AL Body			AR Body			
		X1	Y1	Z1	X2	Y2	Z2	X3	Y3	Z3	X4	Y4	Z4	X5	Y5	Z5	X6	Y6	Z6	X7	Y7	Z7	X8	Y8	Z8	X9	Y9	Z9	

3505	35.040	-122.17681	36.15322	-133.21869	190.48209	33.16924	-187.98779	-185.66968	-19.73909	438.14822	277.73407	-18.01550	475.05038	-40.78410	1234.10938	-231.76851	-31.28970	604.24396	-286.72168	128.95859	600.41077	-290.95160	-8.84184	513.57324	654.70746	146.76915	503.16568	650.12415	
3506	35.050	-123.60171	33.20407	-132.12886	189.53461	32.66690	-188.38901	-186.38533	-19.11223	438.15329	277.40427	-20.90457	476.31177	-39.48854	1233.78870	-229.36038	-29.66507	604.10632	-284.61389	130.42296	600.36578	-289.04590	-6.73744	513.16956	656.67242	148.73378	502.83151	651.93317	
3507	35.060	-124.65956	34.30480	-132.92767	188.75581	32.38620	-188.13922	-186.77910	-18.56535	438.37570	277.59641	-19.76332	475.52307	-39.04138	1233.55029	-226.99794	-28.28038	604.33759	-282.37482	131.71390	600.28772	-286.88214	-4.25654	513.58276	659.43762	150.53986	503.17285	653.83386	
3508	35.070	-123.95139	34.26463	-131.48557	188.84355	35.06270	-187.90689	-186.27469	-15.82191	438.36008	276.36194	-21.57895	477.68896	-37.46211	1234.34668	-224.70721	-26.95517	605.16400	-280.16528	133.33990	600.81793	-284.63837	-2.44957	513.66046	660.97125	152.68916	503.14517	656.06421	
3509	35.080	-124.69279	34.49391	-131.59265	186.85535	39.20189	-185.47314	-183.61139	-12.70955	439.68222	275.73059	-21.63700	477.68579	-35.01678	1235.01440	-222.60475	-25.62860	606.30927	-278.24713	134.61755	601.89868	-282.70798	-0.61719	512.84534	662.93030	154.49487	502.62271	657.86334	
3510	35.090	-125.78209	35.47649	-131.63824	185.41730	43.31424	-181.36159	-178.42757	-11.10034	442.58984	275.12701	-22.00608	476.58575	-33.07976	1236.30469	-220.28712	-24.63759	606.94598	-276.51929	135.68747	602.71631	-281.15527	1.05622	512.07782	664.11353	154.89168	501.84628	659.09875	
3511	35.100	-125.73048	34.57781	-131.01205	185.94122	52.73690	-179.15462	-172.34317	-3.04598	443.37628	275.10153	-21.88165	477.94138	-30.42768	1237.11877	-217.27402	-23.54474	607.05420	-275.13995	136.33121	602.89496	-280.21780	2.51487	511.46710	665.62311	157.88330	501.24246	660.06592	
3512	35.110	-126.42482	34.13871	-131.58163	188.55545	62.17787	-177.12657	-167.17152	5.03856	444.68826	274.33987	-22.12000	476.89481	-28.35660	1237.84387	-214.29077	-23.32565	607.24451	-273.89810	136.32368	602.62201	-278.74487	4.19585	510.90860	666.94897	159.48158	500.68933	661.11023	
3513	35.120	-127.97955	34.02530	-131.26442	191.74710	74.86168	-177.36531	-163.29390	17.42943	445.66730	273.46729	-22.10651	477.32220	-27.68614	1238.00439	-212.18932	-23.13689	607.22327	-272.72888	137.30489	602.68823	-278.19287	6.02293	510.22198	667.81421	161.23987	499.76498	662.04987	
3514	35.130	-128.81839	33.96392	-131.44205	196.24922	87.44637	-176.32927	-161.25363	28.96864	448.01340	272.75159	-21.92088	477.15778	-26.66979	1237.79578	-210.25526	-23.23956	607.35297	-271.71521	137.43826	602.57520	-277.15448	7.63651	509.14285	668.77588	163.02107	498.70358	662.70294	
3515	35.140	-129.73335	33.92008	-131.29729	200.00044	99.68546	-175.23322	-158.24002	40.68945	450.63492	272.22086	-21.64586	477.19470	-27.35368	1237.56189	-209.39310	-22.64769	607.06366	-270.65439	137.11026	602.50494	-276.62018	9.38297	508.08502	669.61420	164.77054	497.23193	663.36517	
3516	35.150	-130.91853	33.80865	-131.20520	204.43063	111.66056	-172.91310	-154.15109	52.06209	454.34363	270.96011	-21.75952	477.05240	-27.86146	1236.99792	-208.37251	-22.99551	607.12885	-269.68170	136.93550	602.01367	-275.91983	11.36398	506.93710	670.99304	166.45491	496.04562	663.72437	
3517	35.160	-131.72612	33.02617	-131.39024	208.06407	122.73933	-171.09229	-149.40878	63.06853	457.86221	270.14151	-21.43680	477.03491	-27.47815	1235.87476	-207.54948	-23.00203	606.63727	-268.79617	136.96259	601.26080	-275.09216	11.95608	506.29022	671.24432	167.71017	495.30920	664.24744	
3518	35.170	-132.49196	32.74182	-131.37881	211.73160	132.77026	-168.89725	-144.87505	73.08841	461.22400	269.58426	-20.79955	476.82669	-27.34845	1235.17236	-206.34833	-22.83707	605.88348	-268.22141	136.69304	600.70447	-274.76321	14.14113	505.44247	672.19635	169.18390	494.72720	664.51062	
3519	35.180	-133.94272	32.75011	-131.36801	215.08286	141.82539	-167.10681	-139.29233	81.68658	464.24292	268.42532	-20.84245	476.79895	-27.15084	1235.15112	-205.54930	-23.35917	605.35699	-267.58008	136.70621	600.25537	-274.77884	15.02842	505.11667	672.22711	170.47588	494.37842	665.10541	
3520	35.190	-134.58276	32.48294	-131.48697	219.44948	149.56937	-165.50172	-132.94826	88.70724	466.74628	267.88956	-20.50989	476.57654	-26.65065	1234.95276	-205.01804	-24.23235	604.99286	-266.96201	136.11699	599.75842	-274.55231	16.44367	504.75989	672.73108	171.74390	494.05243	665.37854	
3521	35.200	-135.69461	32.28901	-131.43510	224.00496	154.56104	-163.98180	-126.78815	93.96747	469.56985	267.16638	-19.95217	476.55740	-26.86241	1234.56897	-204.80153	-24.32473	604.25330	-266.46136	135.06696	599.19562	-274.04413	17.63690	504.62784	673.73663	172.84395	493.80331	665.51257	
